<?xml version="1.0" standalone="no"?><!DOCTYPE svg PUBLIC "-//W3C//DTD SVG 1.1//EN" "http://www.w3.org/Graphics/SVG/1.1/DTD/svg11.dtd"><svg t="1585147702000" class="icon" viewBox="0 0 1024 1024" version="1.1" xmlns="http://www.w3.org/2000/svg" p-id="1167" xmlns:xlink="http://www.w3.org/1999/xlink" width="200" height="200"><defs><style type="text/css">@font-face { font-family: element-icons; src: url("chrome-extension://moombeodfomdpjnpocobemoiaemednkg/fonts/element-icons.woff") format("woff"), url("chrome-extension://moombeodfomdpjnpocobemoiaemednkg/fonts/element-icons.ttf ") format("truetype"); }
</style></defs><path d="M905.309091 740.072727l-72.145455-141.963636v-218.763636C833.163636 202.472727 695.854545 69.818182 512 69.818182S190.836364 202.472727 190.836364 377.018182v218.763636l-72.145455 141.963637c-4.654545 6.981818-2.327273 16.290909 0 23.272727 4.654545 6.981818 13.963636 11.636364 20.945455 11.636363h744.727272c6.981818 0 16.290909-4.654545 20.945455-11.636363s2.327273-13.963636 0-20.945455z m-728.436364-13.963636l51.2-100.072727h365.381818c13.963636 0 23.272727-9.309091 23.272728-23.272728s-9.309091-23.272727-23.272728-23.272727H237.381818v-202.472727C237.381818 225.745455 353.745455 116.363636 512 116.363636c158.254545 0 274.618182 109.381818 274.618182 260.654546v202.472727h-53.527273c-13.963636 0-23.272727 9.309091-23.272727 23.272727s9.309091 23.272727 23.272727 23.272728h62.836364l51.2 100.072727H176.872727zM619.054545 800.581818c-13.963636 0-23.272727 9.309091-23.272727 23.272727 0 46.545455-37.236364 83.781818-83.781818 83.781819s-83.781818-37.236364-83.781818-83.781819c0-13.963636-9.309091-23.272727-23.272727-23.272727s-23.272727 9.309091-23.272728 23.272727c0 72.145455 58.181818 130.327273 130.327273 130.327273 72.145455 0 130.327273-58.181818 130.327273-130.327273 0-11.636364-11.636364-23.272727-23.272728-23.272727z" fill="#1683f0" p-id="1168"></path></svg>